<!--
  Comoros — one of the journeys-card band's flags (owner, 2026-10-09).

  Design source: flag-icons 7.5.0, `flags/4x3/km.svg`, the set the repo
  already vendors for the backend (backend/node_modules/flag-icons).
  Copied here, verbatim, from that in-repo dependency — NOT downloaded
  from the internet, and never fetched at build or runtime. Regenerate
  every flag from that dependency with `node scripts/vendor-flags.mjs`.

  Why a local copy at all: the frontend's own flag component (`FlagImg`)
  loads `https://flagcdn.com` at RUNTIME, which the owner's rule forbids
  for the card band. The band paints only assets this repository ships.

  Licence: MIT — Copyright (c) 2013 Panayiotis Lipiridis. See
  backend/node_modules/flag-icons/LICENSE. Colours used: #ff0, #fff, #be0027, #3b5aa3.
-->
<svg xmlns="http://www.w3.org/2000/svg" id="flag-icons-km" viewBox="0 0 640 480">
  <defs>
    <clipPath id="km-a">
      <path fill-opacity=".7" d="M0 0h682.7v512H0z"/>
    </clipPath>
  </defs>
  <g fill-rule="evenodd" clip-path="url(#km-a)" transform="scale(.9375)">
    <path fill="#ff0" d="M0 0h768.8v128H0z"/>
    <path fill="#fff" d="M0 128h768.8v128H0z"/>
    <path fill="#be0027" d="M0 256h768.8v128H0z"/>
    <path fill="#3b5aa3" d="M0 384h768.8v128H0z"/>
    <path fill="#239e46" d="M0 0v512l381.9-255.3z"/>
    <path fill="#fff" d="M157.2 141.4c-85-4.3-123.9 63.5-123.8 115.9-.2 62 58.6 113 112.8 110C117 353.5 81.2 314.6 81 257c-.3-52.1 29.5-97.5 76.3-115.6z"/>
    <path fill="#fff" d="m156 197-12-9.3-14.6 4.6 5.2-14.4-8.8-12.4 15.2.6 9-12.3 4.3 14.7 14.4 4.8-12.6 8.5zm-.3 52.1-12-9.4-14.6 4.6 5.3-14.3-8.9-12.4 15.3.5 9-12.2 4.2 14.6 14.5 4.9-12.7 8.5zm.2 52.6-12-9.4-14.5 4.6 5.2-14.3-8.8-12.4 15.2.5 9-12.2 4.3 14.6 14.4 4.8-12.6 8.6zm-.2 53-12-9.3L129 350l5.3-14.4-8.9-12.4 15.3.6 9-12.3 4.2 14.7 14.5 4.8-12.7 8.5z"/>
  </g>
</svg>
