<!--
  Namibia — one of the journeys-card band's flags (owner, 2026-10-09).

  Design source: flag-icons 7.5.0, `flags/4x3/na.svg`, the set the repo
  already vendors for the backend (backend/node_modules/flag-icons).
  Copied here, verbatim, from that in-repo dependency — NOT downloaded
  from the internet, and never fetched at build or runtime. Regenerate
  every flag from that dependency with `node scripts/vendor-flags.mjs`.

  Why a local copy at all: the frontend's own flag component (`FlagImg`)
  loads `https://flagcdn.com` at RUNTIME, which the owner's rule forbids
  for the card band. The band paints only assets this repository ships.

  Licence: MIT — Copyright (c) 2013 Panayiotis Lipiridis. See
  backend/node_modules/flag-icons/LICENSE. Colours used: #fff, #3662a2, #38a100, #c70000.
-->
<svg xmlns="http://www.w3.org/2000/svg" id="flag-icons-na" viewBox="0 0 640 480">
  <defs>
    <clipPath id="na-a">
      <path fill-opacity=".7" d="M0 0h640v480H0z"/>
    </clipPath>
  </defs>
  <g fill-rule="evenodd" clip-path="url(#na-a)">
    <path fill="#fff" d="M0 0h640v480H0z"/>
    <path fill="#3662a2" d="m-26.4.2.8 345.6L512.5 0z"/>
    <path fill="#38a100" d="M666.4 479.6 665 120.3 122.3 479.8l544-.2z"/>
    <path fill="#c70000" d="m-26 371.8.4 108.2 117.5-.1L665.4 95.4l-.7-94.1-116-1L-26 371.7z"/>
    <path fill="#ffe700" d="m219.6 172-21.8-13.2-12.6 22.1-12.2-22.2-22 12.9.6-25.4-25.4.2 13.2-21.8-22.1-12.5 22.2-12.3-12.8-22 25.4.6-.1-25.5 21.7 13.2L186.3 44l12.2 22.2 22-12.9-.6 25.4 25.4-.2-13.2 21.8 22.1 12.5-22.2 12.3 12.8 22-25.4-.6z"/>
    <path fill="#3662a2" d="M232.4 112.4c0 25.6-20.9 46.3-46.6 46.3s-46.6-20.7-46.6-46.3 20.8-46.2 46.6-46.2 46.6 20.7 46.6 46.2"/>
    <path fill="#ffe700" d="M222.3 112.4a36.5 36.5 0 1 1-73 0 36.5 36.5 0 0 1 73 0"/>
  </g>
</svg>
